# xmcd CD database file generated by OrangeCD 6.5
#
# Track frame offsets:
#	150
#	28217
#	58829
#	88909
#	117660
#	132617
#	150394
#	169792
#	199463
#	227610
#	250035
#	283106
#	325012
#
# Disc length: 4667 seconds
#
# Revision: 1
# Processed by: cddbd v1.5.2PL0 Copyright (c) Steve Scherf et al.
# Submitted via: OrangeCD 6.5
#
DISCID=c012390d
DTITLE=Taste - I'll Remember
DYEAR=1970
DGENRE=Blues
TTITLE0=What's Going On
TTITLE1=Sugar Mamma
TTITLE2=Gamblin' Blues
TTITLE3=Sinner Boy
TTITLE4=At The Bottom
TTITLE5=She's 19 Years Old
TTITLE6=Morning Sun
TTITLE7=Catfish
TTITLE8=I'll Remember
TTITLE9=Railway And Gun
TTITLE10=Sugar Mama
TTITLE11=Eat My Words
TTITLE12=Catfish
EXTD=
EXTT0=
EXTT1=
EXTT2=
EXTT3=
EXTT4=
EXTT5=
EXTT6=
EXTT7=
EXTT8=
EXTT9=
EXTT10=
EXTT11=
EXTT12=
PLAYORDER=
